<?xml version="1.0" encoding="UTF-8"?>
<svg enable-background="new 0 0 171.4 102.8" version="1.1" viewBox="0 0 171.4 102.8" xml:space="preserve" xmlns="http://www.w3.org/2000/svg">
<style type="text/css">
	.st0{fill:#E7AD11;}
	.st1{fill:#F7E8A9;}
	.st2{fill:#299F95;}
	.st3{fill:#CD5A18;}
	.st4{fill:#713F08;}
</style>
	<path class="st0" d="m158.5 53.9c-0.2 0.1-0.4 0.1-0.5 0.1h-49.4c-0.6 0-0.6 0-0.6-0.6v-49.3-0.6c16.8 16.8 33.7 33.6 50.5 50.4z"/>
	<path class="st1" d="m54.5 3.5c16.9 16.8 33.7 33.6 50.5 50.3-0.2 0.1-0.3 0.1-0.5 0.1h-49.4c-0.4 0-0.6-0.1-0.6-0.5v-49.4-0.5z"/>
	<path class="st2" d="m55 0.6h0.6 49.3c0.7 0 0.6-0.1 0.6 0.6v49.1 0.7c-16.8-16.8-33.6-33.6-50.5-50.4z"/>
	<path class="st3" d="m2 1.1h0.6 48.9c0.6 0 0.6-0.1 0.6 0.6v48.8 0.6c-16.8-16.7-33.4-33.3-50.1-50z"/>
	<path class="st4" d="m73.9 60.1c1.7 0 3.5 0.6 5.1 1.8 0.2 0.2 0.3 0.3 0.1 0.5-0.4 0.5-0.7 1-1.1 1.5-0.2 0.3-0.3 0.3-0.6 0.1-1.1-0.8-2.3-1.3-3.6-1.4-0.7-0.1-1.3 0-1.9 0.3s-1 0.8-1.1 1.5c0 0.8 0.3 1.3 1 1.6 0.8 0.4 1.8 0.7 2.7 0.9s1.9 0.5 2.8 0.9c1.6 0.8 2.5 2.1 2.5 3.9-0.1 1.9-0.9 3.3-2.7 4.1-1.9 0.8-3.8 0.7-5.7 0.2-1.4-0.4-2.6-1-3.7-1.9-0.2-0.2-0.3-0.3-0.1-0.6l1.2-1.5c0.2-0.2 0.3-0.2 0.5 0 1.2 1 2.6 1.7 4.2 1.8 0.8 0.1 1.5 0 2.2-0.3s1.1-0.9 1.2-1.7c0-0.8-0.4-1.3-1.1-1.7-1.1-0.5-2.2-0.7-3.3-1-0.7-0.2-1.3-0.4-1.9-0.7-1.5-0.7-2.4-1.8-2.5-3.5-0.1-1.8 0.6-3.2 2.1-4.2 1-0.4 2.1-0.6 3.7-0.6z"/>
	<path class="st4" d="m90.6 69.6v6.2c0 0.3-0.1 0.4-0.4 0.4h-2c-0.3 0-0.4-0.1-0.4-0.4v-12.4c0-0.4-0.1-0.5-0.5-0.5h-4.1c-0.3 0-0.4-0.1-0.4-0.4v-1.8c0-0.3 0.1-0.4 0.4-0.4h12.2c0.3 0 0.4 0.1 0.4 0.4v1.9c0 0.3-0.1 0.4-0.4 0.4h-4.3c-0.3 0-0.4 0.1-0.4 0.4-0.1 2-0.1 4.1-0.1 6.2z"/>
	<path class="st4" d="m103.8 95.6v6.2c0 0.4-0.1 0.5-0.5 0.5h-2c-0.3 0-0.4-0.1-0.4-0.4v-12.4c0-0.4-0.1-0.5-0.5-0.5h-4.1c-0.3 0-0.4 0-0.4-0.4v-1.9c0-0.2 0.1-0.3 0.3-0.3h12.3c0.2 0 0.3 0.1 0.3 0.3v2c0 0.3-0.1 0.3-0.4 0.3h-4.2c-0.4 0-0.5 0.1-0.5 0.5 0.2 1.9 0.1 4 0.1 6.1z"/>
	<path class="st4" d="m130 94.2v-7.5c0-0.3 0.1-0.5 0.4-0.5h2c0.3 0 0.4 0.1 0.4 0.4v12.4c0 0.4 0.1 0.5 0.5 0.5h7.4c0.4 0 0.5 0.1 0.5 0.5v1.7c0 0.4-0.1 0.4-0.5 0.4h-6.7-3.6c-0.3 0-0.4-0.1-0.4-0.4v-7.5z"/>
	<path class="st4" d="m88.9 94.2v-7.5c0-0.3 0.1-0.5 0.4-0.4h2c0.3 0 0.4 0 0.4 0.3v15.3c0 0.3-0.1 0.3-0.3 0.3h-2.1c-0.3 0-0.4-0.1-0.4-0.4v-7.6z"/>
	<path class="st4" d="m148.2 94.3v7.5c0 0.3-0.1 0.5-0.4 0.4h-2c-0.3 0-0.4 0-0.4-0.3v-15.3c0-0.2 0.1-0.3 0.3-0.3h2.1c0.3 0 0.4 0.1 0.4 0.4v7.6z"/>
		<path class="st4" d="m109 70.2c0.2-0.1 0.3-0.1 0.3-0.1 1.9-0.7 3.1-2 3.4-4.1 0.3-2.4-0.9-4.5-3.2-5.3-0.8-0.3-1.7-0.4-2.6-0.4h-6.2c-1 0-1 0-1 1v14.5c0 0.3 0 0.5 0.4 0.5h2c0.3 0 0.4-0.1 0.4-0.4v-4.6c0-0.4 0.1-0.5 0.5-0.5h2.6c0.3 0 0.5 0.1 0.6 0.3 1.2 1.7 2.3 3.3 3.5 5 0.1 0.1 0.1 0.3 0.3 0.3h3.2c-1.4-2.2-2.8-4.2-4.2-6.2zm-2.5-2h-3.6c-0.4 0-0.4-0.1-0.4-0.4v-2.2-2.3c0-0.3 0.1-0.3 0.3-0.3h4.2c0.3 0 0.7 0.1 1 0.2 1.1 0.3 1.7 1.1 1.8 2.1 0.1 1.2-0.4 2.1-1.4 2.6-0.6 0.2-1.3 0.3-1.9 0.3z"/>
		<path class="st4" d="m149.9 64.6c-1.5-3-4.2-4.2-7.4-4.3-1.9-0.1-3.8 0-5.7 0-0.3 0-0.4 0.1-0.4 0.4v7.6s0 5 0 7.6c0 0.3 0.1 0.4 0.4 0.4h5.4c0.7 0 1.4 0 2.1-0.2 5.8-1.3 7.8-7.2 5.6-11.5zm-2.1 4.4c-0.3 2.8-2.4 4.7-5.3 4.7h-2.9c-0.3 0-0.4-0.1-0.4-0.4v-5s0-3.3 0-5c0-0.3 0.1-0.4 0.4-0.4 1.3 0.1 2.6-0.1 3.9 0.1 2.9 0.5 4.6 3 4.3 6z"/>
		<path class="st4" d="m126 101.8c-2.2-5.1-4.5-10.2-6.7-15.4-0.1-0.2-0.2-0.3-0.5-0.3h-1.8c-0.3 0-0.5 0.1-0.6 0.4-1.8 4.2-3.6 8.3-5.4 12.5-0.5 1.1-0.9 2.1-1.4 3.2h2.6c0.3 0 0.4-0.1 0.5-0.3 0.4-1.1 0.9-2.1 1.3-3.2 0.1-0.3 0.2-0.4 0.5-0.3h6.7c0.3 0 0.4 0.1 0.5 0.4 0.4 1 0.9 2.1 1.3 3.1 0.1 0.3 0.3 0.4 0.6 0.4h2.2c0.4 0 0.4-0.2 0.2-0.5zm-5.8-5.9h-4.9-0.2c0.9-2.1 1.8-4.1 2.7-6.3 0.6 1.4 1.2 2.7 1.7 4 0.3 0.7 0.6 1.4 0.9 2.1 0.1 0.1 0.1 0.2-0.2 0.2z"/>
		<path class="st4" d="m168.8 102.1c-2.3-5.2-4.6-10.4-6.8-15.7-0.1-0.2-0.2-0.3-0.4-0.3h-1.8c-0.4 0-0.6 0.1-0.7 0.5-1.9 4.3-3.7 8.6-5.6 12.9l-1.2 2.7h2.6c0.3 0 0.4-0.1 0.5-0.3 0.4-1.1 0.9-2.1 1.3-3.2 0.1-0.3 0.2-0.4 0.6-0.4h6.7c0.3 0 0.4 0.1 0.5 0.4 0.4 1.1 0.9 2.1 1.3 3.2 0.1 0.1 0 0.3 0.3 0.3h2.8l-0.1-0.1zm-7.1-6.2h-3.6c-0.2 0-0.4 0-0.2-0.3 0.9-2 1.7-4 2.6-6 0.9 2.1 1.8 4.2 2.7 6.3h-1.5z"/>
		<path class="st4" d="m125.6 60.4c-0.1-0.2-0.2-0.3-0.4-0.2h-1.9c-0.3 0-0.5 0.1-0.6 0.4-0.9 2-1.8 4.1-2.7 6.1-1.3 3-2.6 6.1-4 9.1-0.2 0.3-0.1 0.5 0.3 0.4h2.1c0.3 0 0.4-0.1 0.5-0.3 0.4-1.1 0.9-2.1 1.3-3.1 0.1-0.3 0.2-0.4 0.5-0.4h6.8c0.3 0 0.4 0.1 0.5 0.3 0.4 1.1 0.9 2.1 1.3 3.2 0.1 0.2 0.1 0.3 0.4 0.3h2.7v-0.1c-2.2-5.2-4.5-10.4-6.8-15.7zm-4.1 9.5c0.9-2.1 1.8-4.1 2.7-6.3 0.9 2.1 1.8 4.2 2.7 6.3h-5.4z"/>
		<path class="st4" d="m169.2 75.8l-1.5-3.3c-1.7-4-3.5-7.9-5.2-11.9-0.1-0.3-0.3-0.4-0.6-0.4h-1.8c-0.3 0-0.4 0.1-0.6 0.4-1.4 3.3-2.9 6.6-4.3 9.9-0.8 1.9-1.6 3.8-2.5 5.7h2.5c0.3 0 0.4-0.1 0.6-0.4 0.4-1 0.9-2.1 1.3-3.1 0.1-0.3 0.2-0.4 0.6-0.4h6.7c0.3 0 0.4 0.1 0.5 0.3 0.4 1.1 0.9 2.1 1.3 3.2 0.1 0.1 0.1 0.3 0.3 0.3h2.8c0.1-0.1 0-0.2-0.1-0.3zm-5.7-5.9h-4.8c-0.2 0-0.3 0-0.2-0.3 0.9-2 1.7-4 2.6-6.1 0.9 2.1 1.7 4 2.6 6 0.1 0.4 0.1 0.4-0.2 0.4z"/>
</svg>
