<?xml version="1.0" encoding="utf-8"?>
<!-- Generator: Adobe Illustrator 19.0.0, SVG Export Plug-In . SVG Version: 6.00 Build 0)  -->
<svg version="1.1" id="Strada_Italia_x5F_Logo_Color_alta_xA0_Imagen_1_"
	 xmlns="http://www.w3.org/2000/svg" xmlns:xlink="http://www.w3.org/1999/xlink" x="0px" y="0px" viewBox="0 0 157.6 53.6"
	 style="enable-background:new 0 0 157.6 53.6;" xml:space="preserve">
<style type="text/css">
	.st0{fill:#E7AD11;}
	.st1{fill:#F7E8A9;}
	.st2{fill:#299F95;}
	.st3{fill:#CD5A18;}
</style>
<g>
	<path class="st0" d="M157.1,53.4c-0.2,0.1-0.4,0.1-0.5,0.1c-16.5,0-32.9,0-49.4,0c-0.6,0-0.6,0-0.6-0.6c0-16.4,0-32.8,0-49.3
		c0-0.2,0-0.3,0-0.6C123.4,19.8,140.2,36.6,157.1,53.4z"/>
	<path class="st1" d="M53.1,3c16.9,16.8,33.7,33.6,50.5,50.3c-0.2,0.1-0.3,0.1-0.5,0.1c-16.5,0-33,0-49.4,0c-0.4,0-0.6-0.1-0.6-0.5
		c0-16.5,0-32.9,0-49.4C53.1,3.4,53.1,3.2,53.1,3z"/>
	<path class="st2" d="M53.5,0.1c0.3,0,0.5,0,0.6,0c16.4,0,32.9,0,49.3,0c0.7,0,0.6-0.1,0.6,0.6c0,16.4,0,32.8,0,49.1
		c0,0.2,0,0.4,0,0.7C87.2,33.7,70.4,17,53.5,0.1z"/>
	<path class="st3" d="M0.5,0.6c0.3,0,0.5,0,0.6,0c16.3,0,32.6,0,48.9,0c0.6,0,0.6-0.1,0.6,0.6c0,16.3,0,32.5,0,48.8
		c0,0.1,0,0.3,0,0.6C33.9,33.9,17.3,17.3,0.5,0.6z"/>
</g>
</svg>
